# xmcd
#
# Track frame offsets:
#	150
#	20441
#	37963
#	56223
#	70268
#	89340
#	107382
#	126052
#	143232
#	164163
#	178809
#	199263
#	216273
#
# Disc length: 3155 seconds
#
# Revision: 1
# Processed by: cddbd v1.5.2PL0 Copyright (c) Steve Scherf et al.
# Submitted via: audiograbber 1.83.01
#
DISCID=c10c510d
DTITLE=The Bee Gees and Andy Gibb - ZPA-045
DYEAR=1900
DGENRE=Karaoke
TTITLE0=Alone
TTITLE1=Jive Talkin'
TTITLE2=You Win Again
TTITLE3=Spicks And Specks
TTITLE4=For Whom The Bell Tolls
TTITLE5=You Should Be Dancing
TTITLE6=Emotion
TTITLE7=Secret Love
TTITLE8=My World
TTITLE9=Saved By The Bell
TTITLE10=An Everlasting Love
TTITLE11=Flowing Rivers
TTITLE12=Boogie Medley (jive talkin-should be dancin-winagain)
EXTD=
EXTT0=
EXTT1=
EXTT2=
EXTT3=
EXTT4=
EXTT5=
EXTT6=
EXTT7=
EXTT8=
EXTT9=
EXTT10=
EXTT11=
EXTT12=
PLAYORDER=
